<?xml version="1.0" encoding="utf-8"?>
<!-- Generator: Adobe Illustrator 15.0.2, SVG Export Plug-In . SVG Version: 6.00 Build 0)  -->
<!DOCTYPE svg PUBLIC "-//W3C//DTD SVG 1.1//EN" "http://www.w3.org/Graphics/SVG/1.1/DTD/svg11.dtd">
<svg version="1.1" id="Layer_1" xmlns="http://www.w3.org/2000/svg" xmlns:xlink="http://www.w3.org/1999/xlink" x="0px" y="0px"
	 width="352px" height="675px" viewBox="0 0 352 675" enable-background="new 0 0 352 675" xml:space="preserve">
<path fill-rule="evenodd" clip-rule="evenodd" fill="#444444" d="M285,435c-95.077,0.03-157.547-23.572-218-59
	c-22.479-13.174-48.816-22.747-64-43c10.895-14.752,65.272-8.428,85-5c56.735,9.857,101.792,17.088,140,44
	c18.864,13.287,41.541,53.84,60,58c2.59-30.477,9.294-76.518-6-100c-18.269-1.219-44.111,2.798-64-1
	c-55.685-10.634-90.713-37.063-128-65c-17.701-13.262-46.089-31.018-50-57c76.423-14.144,161.866,27.086,201,62
	c17.017,15.182,22.345,43.718,42,56c0-1,0-2,0-3c-8.996-24.279-21.219-80.38-39-93c-18.646-13.234-50.981-12.211-71-24
	c-34.27-20.182-60.584-57.785-79-94c-6.374-12.535-27.188-43.247-21-58c62.89-0.212,131.404,90.659,157,134
	c6.197,10.494,29.257,44.852,31,54c0.333,0,0.667,0,1,0c-2.599-22.802-18.183-47.481-12-81c8.415-45.618,38.632-131.734,71-148
	c2.667,0,5.333,0,8,0c11.755,9.336,6.056,89.638,2,109c-6.98,33.323-10.461,70.486-24,98c-8.489,17.251-22.808,28.311-29,49
	c6.666,25.331,13.334,50.669,20,76c0.627-27.372,12.896-60.787,41-54c35.963,27.657-35.145,57.974-39,70
	c-4.843,15.107,4.088,37.92,1,55c-7.315,40.458-23.654,66.461-43,94c-6.548,9.321-18.237,32.106-28,20c0-0.667,0-1.333,0-2
	C247.377,512.858,282.325,462.141,285,435z"/>
<path fill-rule="evenodd" clip-rule="evenodd" d="M262,243c0,0.667,0,1.333,0,2C262,244.333,262,243.667,262,243z"/>
<path fill-rule="evenodd" clip-rule="evenodd" d="M263,246c1,1.667,2,3.333,3,5C265,249.333,264,247.667,263,246z"/>
</svg>
